<?xml version="1.0" encoding="UTF-8"?>
<svg id="_图层_2" data-name="图层 2" xmlns="http://www.w3.org/2000/svg" viewBox="0 0 204.33 99.69">
  <defs>
    <style>
      .cls-1 {
        fill: #231815;
        stroke-width: 0px;
      }
    </style>
  </defs>
  <g id="_图层_1-2" data-name="图层 1">
    <g>
      <g>
        <path class="cls-1" d="m6.69,54.3h3.46l5.74,15.36h-3.51l-1.16-3.42h-5.74l-1.2,3.42H.86l5.83-15.36Zm-.32,9.42h3.98l-1.94-5.64h-.04l-2,5.64Z"/>
        <path class="cls-1" d="m16.91,58.54h2.9v2.06h.04c.56-1.4,2.06-2.37,3.55-2.37.22,0,.47.04.67.11v2.84c-.28-.06-.73-.11-1.1-.11-2.24,0-3.01,1.61-3.01,3.57v5.01h-3.05v-11.12Z"/>
        <path class="cls-1" d="m32.46,62.46c-.19-1.25-.99-1.91-2.26-1.91-1.96,0-2.6,1.98-2.6,3.61s.62,3.51,2.54,3.51c1.42,0,2.24-.9,2.43-2.26h2.95c-.39,2.95-2.43,4.56-5.36,4.56-3.36,0-5.61-2.37-5.61-5.7s2.06-6.02,5.68-6.02c2.62,0,5.03,1.38,5.23,4.22h-2.99Z"/>
        <path class="cls-1" d="m37.24,54.3h3.05v5.79h.06c.77-1.25,2.11-1.85,3.25-1.85,3.25,0,4.07,1.83,4.07,4.58v6.84h-3.05v-6.28c0-1.83-.54-2.73-1.96-2.73-1.66,0-2.37.92-2.37,3.18v5.83h-3.05v-15.36Z"/>
        <path class="cls-1" d="m53.13,56.82h-3.05v-2.52h3.05v2.52Zm-3.05,1.72h3.05v11.12h-3.05v-11.12Z"/>
        <path class="cls-1" d="m59.42,58.54h2.24v2.04h-2.24v5.51c0,1.03.26,1.29,1.29,1.29.32,0,.62-.02.95-.09v2.39c-.52.09-1.18.11-1.79.11-1.87,0-3.51-.43-3.51-2.65v-6.56h-1.85v-2.04h1.85v-3.34h3.05v3.34Z"/>
        <path class="cls-1" d="m65.63,64.84c.09,1.94,1.03,2.82,2.73,2.82,1.23,0,2.22-.75,2.41-1.44h2.69c-.86,2.63-2.69,3.74-5.21,3.74-3.51,0-5.68-2.41-5.68-5.85s2.3-5.87,5.68-5.87c3.79,0,5.61,3.18,5.4,6.6h-8.02Zm4.97-1.94c-.28-1.55-.95-2.37-2.43-2.37-1.94,0-2.5,1.51-2.54,2.37h4.97Z"/>
        <path class="cls-1" d="m83.03,62.46c-.19-1.25-.99-1.91-2.26-1.91-1.96,0-2.6,1.98-2.6,3.61s.62,3.51,2.54,3.51c1.42,0,2.24-.9,2.43-2.26h2.95c-.39,2.95-2.43,4.56-5.36,4.56-3.36,0-5.61-2.37-5.61-5.7s2.06-6.02,5.68-6.02c2.62,0,5.03,1.38,5.23,4.22h-2.99Z"/>
        <path class="cls-1" d="m91.68,58.54h2.24v2.04h-2.24v5.51c0,1.03.26,1.29,1.29,1.29.32,0,.62-.02.95-.09v2.39c-.52.09-1.18.11-1.79.11-1.87,0-3.51-.43-3.51-2.65v-6.56h-1.85v-2.04h1.85v-3.34h3.05v3.34Z"/>
        <path class="cls-1" d="m105.82,69.66h-2.9v-1.55h-.06c-.77,1.25-2.11,1.85-3.4,1.85-3.25,0-4.07-1.83-4.07-4.58v-6.84h3.05v6.28c0,1.83.54,2.73,1.96,2.73,1.66,0,2.37-.92,2.37-3.18v-5.83h3.05v11.12Z"/>
        <path class="cls-1" d="m108.14,58.54h2.9v2.06h.04c.56-1.4,2.06-2.37,3.55-2.37.22,0,.47.04.67.11v2.84c-.28-.06-.73-.11-1.1-.11-2.24,0-3.01,1.61-3.01,3.57v5.01h-3.05v-11.12Z"/>
        <path class="cls-1" d="m118.64,64.84c.09,1.94,1.03,2.82,2.73,2.82,1.23,0,2.22-.75,2.41-1.44h2.69c-.86,2.63-2.69,3.74-5.21,3.74-3.51,0-5.68-2.41-5.68-5.85s2.3-5.87,5.68-5.87c3.79,0,5.61,3.18,5.4,6.6h-8.02Zm4.97-1.94c-.28-1.55-.95-2.37-2.43-2.37-1.94,0-2.5,1.51-2.54,2.37h4.97Z"/>
        <path class="cls-1" d="m2.49,80.12h3.38v15.36h-3.38v-15.36Z"/>
        <path class="cls-1" d="m8.52,84.36h2.9v1.55h.06c.77-1.25,2.11-1.85,3.4-1.85,3.25,0,4.07,1.83,4.07,4.58v6.84h-3.05v-6.28c0-1.83-.54-2.73-1.96-2.73-1.66,0-2.37.92-2.37,3.18v5.83h-3.05v-11.12Z"/>
        <path class="cls-1" d="m25.15,84.36h2.24v2.04h-2.24v5.51c0,1.03.26,1.29,1.29,1.29.32,0,.62-.02.95-.09v2.39c-.52.09-1.18.11-1.79.11-1.87,0-3.51-.43-3.51-2.65v-6.56h-1.85v-2.04h1.85v-3.34h3.05v3.34Z"/>
        <path class="cls-1" d="m31.36,90.66c.09,1.94,1.03,2.82,2.73,2.82,1.23,0,2.22-.75,2.41-1.44h2.69c-.86,2.63-2.69,3.74-5.21,3.74-3.51,0-5.68-2.41-5.68-5.85s2.3-5.87,5.68-5.87c3.79,0,5.61,3.18,5.4,6.6h-8.02Zm4.97-1.94c-.28-1.55-.95-2.37-2.43-2.37-1.94,0-2.5,1.51-2.54,2.37h4.97Z"/>
        <path class="cls-1" d="m41.28,80.12h3.05v15.36h-3.05v-15.36Z"/>
        <path class="cls-1" d="m46.83,80.12h3.05v15.36h-3.05v-15.36Z"/>
        <path class="cls-1" d="m55.43,82.63h-3.05v-2.52h3.05v2.52Zm-3.05,1.72h3.05v11.12h-3.05v-11.12Z"/>
        <path class="cls-1" d="m68.54,94.77c0,1.83-.65,4.93-5.77,4.93-2.19,0-4.75-1.03-4.9-3.57h3.03c.28,1.14,1.2,1.53,2.28,1.53,1.7,0,2.47-1.16,2.45-2.75v-1.46h-.04c-.67,1.16-2,1.72-3.33,1.72-3.34,0-4.75-2.54-4.75-5.59,0-2.88,1.66-5.51,4.78-5.51,1.46,0,2.58.49,3.31,1.79h.04v-1.48h2.9v10.41Zm-2.9-4.99c0-1.81-.62-3.42-2.6-3.42-1.72,0-2.47,1.51-2.47,3.16s.6,3.33,2.47,3.33c1.74,0,2.6-1.48,2.6-3.08Z"/>
        <path class="cls-1" d="m73.5,90.66c.09,1.94,1.03,2.82,2.73,2.82,1.23,0,2.22-.75,2.41-1.44h2.69c-.86,2.63-2.69,3.74-5.21,3.74-3.51,0-5.68-2.41-5.68-5.85s2.3-5.87,5.68-5.87c3.79,0,5.61,3.18,5.4,6.6h-8.03Zm4.97-1.94c-.28-1.55-.95-2.37-2.43-2.37-1.94,0-2.5,1.51-2.54,2.37h4.97Z"/>
        <path class="cls-1" d="m83.33,84.36h2.9v1.55h.06c.77-1.25,2.11-1.85,3.4-1.85,3.25,0,4.07,1.83,4.07,4.58v6.84h-3.05v-6.28c0-1.83-.54-2.73-1.96-2.73-1.66,0-2.37.92-2.37,3.18v5.83h-3.05v-11.12Z"/>
        <path class="cls-1" d="m103.66,88.27c-.19-1.25-.99-1.91-2.26-1.91-1.96,0-2.6,1.98-2.6,3.61s.62,3.51,2.54,3.51c1.42,0,2.24-.9,2.43-2.26h2.95c-.39,2.95-2.43,4.56-5.36,4.56-3.36,0-5.61-2.37-5.61-5.7s2.06-6.02,5.68-6.02c2.62,0,5.03,1.38,5.23,4.22h-2.99Z"/>
        <path class="cls-1" d="m110.96,90.66c.09,1.94,1.03,2.82,2.73,2.82,1.23,0,2.22-.75,2.41-1.44h2.69c-.86,2.63-2.69,3.74-5.21,3.74-3.51,0-5.68-2.41-5.68-5.85s2.3-5.87,5.68-5.87c3.79,0,5.61,3.18,5.4,6.6h-8.02Zm4.97-1.94c-.28-1.55-.95-2.37-2.43-2.37-1.94,0-2.5,1.51-2.54,2.37h4.97Z"/>
        <path class="cls-1" d="m133.07,80.12h4.75l3.59,10.56h.04l3.4-10.56h4.75v15.36h-3.16v-10.89h-.04l-3.76,10.89h-2.6l-3.76-10.78h-.04v10.78h-3.16v-15.36Z"/>
        <path class="cls-1" d="m152.13,87.78c.17-2.86,2.73-3.72,5.23-3.72,2.22,0,4.88.49,4.88,3.16v5.79c0,1.01.11,2.02.39,2.47h-3.1c-.11-.34-.19-.71-.21-1.08-.97,1.01-2.39,1.38-3.74,1.38-2.11,0-3.79-1.05-3.79-3.33,0-2.52,1.89-3.12,3.79-3.38,1.87-.28,3.61-.21,3.61-1.46,0-1.31-.9-1.51-1.98-1.51-1.16,0-1.91.47-2.02,1.68h-3.06Zm7.06,2.26c-.52.45-1.59.47-2.54.65-.95.19-1.81.52-1.81,1.64s.88,1.42,1.87,1.42c2.39,0,2.47-1.89,2.47-2.56v-1.14Z"/>
        <path class="cls-1" d="m168.48,84.36h2.24v2.04h-2.24v5.51c0,1.03.26,1.29,1.29,1.29.32,0,.62-.02.95-.09v2.39c-.52.09-1.18.11-1.79.11-1.87,0-3.51-.43-3.51-2.65v-6.56h-1.85v-2.04h1.85v-3.34h3.05v3.34Z"/>
        <path class="cls-1" d="m172.18,84.36h2.9v2.06h.04c.56-1.4,2.06-2.37,3.55-2.37.22,0,.47.04.67.11v2.84c-.28-.06-.73-.11-1.1-.11-2.24,0-3.01,1.61-3.01,3.57v5.01h-3.05v-11.12Z"/>
        <path class="cls-1" d="m183.69,82.63h-3.05v-2.52h3.05v2.52Zm-3.05,1.72h3.05v11.12h-3.05v-11.12Z"/>
        <path class="cls-1" d="m188.94,89.63l-3.66-5.27h3.49l1.96,2.9,1.94-2.9h3.38l-3.66,5.21,4.11,5.92h-3.49l-2.32-3.51-2.32,3.51h-3.42l4-5.85Z"/>
      </g>
      <path class="cls-1" d="m199.36,79.56h1.9c.76,0,1.23.41,1.23,1.06,0,.49-.22.89-.7,1.03h0c.47.1.57.45.61.84.03.4.01.84.24,1.12h-.6c-.15-.16-.07-.6-.15-1-.06-.4-.15-.73-.67-.73h-1.31v1.73h-.54v-4.04Zm1.66,1.86c.5,0,.93-.13.93-.72,0-.4-.22-.69-.72-.69h-1.34v1.41h1.12Z"/>
      <path class="cls-1" d="m200.83,78.08c-1.94,0-3.51,1.56-3.51,3.5s1.57,3.5,3.51,3.5,3.5-1.57,3.5-3.5-1.57-3.5-3.5-3.5Zm0,6.48c-1.65,0-2.99-1.34-2.99-2.98s1.34-2.98,2.99-2.98,2.98,1.33,2.98,2.98-1.34,2.98-2.98,2.98Z"/>
    </g>
    <g>
      <g>
        <polygon class="cls-1" points="50.49 8.62 41.46 8.62 32.53 0 41.57 0 50.49 8.62"/>
        <polygon class="cls-1" points="83.97 40.92 74.93 40.92 46.06 13.06 55.09 13.06 83.97 40.92"/>
      </g>
      <polygon class="cls-1" points="102.59 41.04 93.56 41.04 51.16 .12 60.19 .12 102.59 41.04"/>
      <polygon class="cls-1" points="65.34 41.03 47.28 41.03 8.97 4.09 0 4.09 0 .12 22.94 .12 65.34 41.03"/>
      <rect class="cls-1" x="0" y="26.99" width="14.05" height="14.05"/>
    </g>
  </g>
</svg>